<svg width="340" height="166" viewBox="0 0 340 166" fill="none" xmlns="http://www.w3.org/2000/svg">
<path fill-rule="evenodd" clip-rule="evenodd" d="M30.4159 0.561608C17.7832 48.9535 41.6492 100.765 88.8441 121.745C136.039 142.726 190.493 125.731 217.955 83.9319C216.538 89.3563 214.664 94.7376 212.312 100.028C188.98 152.513 127.518 176.146 75.0327 152.814C22.5476 129.481 -1.08547 68.0193 22.2468 15.5342C24.5985 10.244 27.3376 5.24698 30.4159 0.561608Z" fill="#9A82DB"/>
<path d="M88.756 133.492C86.46 133.492 84.612 133.016 83.212 132.064C81.812 131.168 80.748 130.02 80.02 128.62C79.348 127.276 78.648 125.512 77.92 123.328C75.4 124.112 72.796 124.504 70.108 124.504C65.404 124.504 61.708 123.16 59.02 120.472C56.388 117.784 55.072 113.5 55.072 107.62C55.072 102.636 55.968 97.036 57.76 90.82C59.552 84.604 62.156 79.284 65.572 74.86C69.044 70.436 73.132 68.224 77.836 68.224C79.516 68.224 80.972 68.448 82.204 68.896C79.74 70.352 77.36 73.348 75.064 77.884C72.824 82.42 71.004 87.488 69.604 93.088C68.204 98.688 67.504 103.644 67.504 107.956V109.468C67.504 110.42 67.56 111.12 67.672 111.568C69.688 111.064 71.424 110.812 72.88 110.812C75.4 110.812 77.64 111.568 79.6 113.08C82.456 109.384 84.892 104.372 86.908 98.044C88.924 91.66 89.932 85.5 89.932 79.564C89.932 76.092 89.624 73.32 89.008 71.248C88.448 69.12 87.384 67.524 85.816 66.46C84.248 65.396 82.036 64.864 79.18 64.864C74.868 64.864 70.864 65.76 67.168 67.552C63.472 69.288 60.504 71.808 58.264 75.112C56.08 78.36 54.988 82.14 54.988 86.452C54.988 87.964 55.128 89.084 55.408 89.812C55.688 90.484 55.828 90.876 55.828 90.988C53.028 90.988 50.9 90.428 49.444 89.308C48.044 88.188 47.344 86.396 47.344 83.932C47.344 80.068 48.912 76.372 52.048 72.844C55.24 69.316 59.44 66.46 64.648 64.276C69.912 62.092 75.428 61 81.196 61C88.196 61 93.264 62.904 96.4 66.712C99.536 70.52 101.104 75.784 101.104 82.504C101.104 86.648 100.516 91.1 99.34 95.86C98.164 100.564 96.372 105.044 93.964 109.3C91.556 113.556 88.588 117 85.06 119.632C86.516 121.816 88.028 123.496 89.596 124.672C91.164 125.848 93.152 126.436 95.56 126.436C95.896 126.436 96.512 126.38 97.408 126.268C96.344 129.012 95.112 130.888 93.712 131.896C92.368 132.96 90.716 133.492 88.756 133.492ZM72.376 117.7C73.608 117.7 74.672 117.392 75.568 116.776C74.448 114.872 72.852 113.92 70.78 113.92C69.884 113.92 69.072 114.032 68.344 114.256C69.128 116.552 70.472 117.7 72.376 117.7ZM110.179 124.504C107.491 124.504 105.307 123.664 103.627 121.984C102.003 120.304 101.191 117.784 101.191 114.424C101.191 113.024 101.415 111.204 101.863 108.964L107.575 82H119.671L113.623 110.56C113.455 111.4 113.371 112.184 113.371 112.912C113.371 115.208 114.211 116.356 115.891 116.356C117.459 116.356 118.803 115.712 119.923 114.424C121.043 113.08 121.939 111.26 122.611 108.964L128.323 82H140.419L134.371 110.56C134.147 111.4 134.035 112.296 134.035 113.248C134.035 114.368 134.287 115.18 134.791 115.684C135.351 116.132 136.247 116.356 137.479 116.356C139.047 116.356 140.391 115.684 141.511 114.34C142.687 112.996 143.611 111.204 144.283 108.964H147.811C145.739 115.012 143.163 119.128 140.083 121.312C137.059 123.44 134.007 124.504 130.927 124.504C128.519 124.504 126.587 123.832 125.131 122.488C123.731 121.144 122.891 119.156 122.611 116.524C120.707 119.604 118.691 121.704 116.563 122.824C114.491 123.944 112.363 124.504 110.179 124.504ZM156.537 124.336C152.393 124.336 149.117 123.272 146.709 121.144C144.301 119.016 143.097 115.656 143.097 111.064C143.097 107.256 143.881 103.028 145.449 98.38C147.017 93.732 149.537 89.728 153.009 86.368C156.481 82.952 160.849 81.244 166.113 81.244C173.281 81.244 176.865 85.724 176.865 94.684V94.768C177.033 94.824 177.341 94.852 177.789 94.852C179.637 94.852 181.765 94.376 184.173 93.424C186.581 92.416 188.765 91.212 190.725 89.812L191.481 92.08C189.857 93.816 187.729 95.3 185.097 96.532C182.521 97.708 179.693 98.548 176.613 99.052C176.165 104.148 175.017 108.6 173.169 112.408C171.321 116.216 168.941 119.156 166.029 121.228C163.117 123.3 159.953 124.336 156.537 124.336ZM159.897 116.776C161.241 116.776 162.585 116.02 163.929 114.508C165.273 112.94 166.449 110.84 167.457 108.208C168.465 105.52 169.193 102.552 169.641 99.304C168.129 98.968 167.373 97.792 167.373 95.776C167.373 93.48 168.241 91.968 169.977 91.24C169.865 89.392 169.585 88.132 169.137 87.46C168.689 86.732 167.905 86.368 166.785 86.368C164.937 86.368 163.145 87.712 161.409 90.4C159.673 93.088 158.273 96.308 157.209 100.06C156.145 103.812 155.613 107.116 155.613 109.972C155.613 112.66 155.921 114.48 156.537 115.432C157.153 116.328 158.273 116.776 159.897 116.776ZM189.504 124.504C186.816 124.504 184.632 123.664 182.952 121.984C181.328 120.304 180.515 117.784 180.515 114.424C180.515 113.024 180.739 111.204 181.188 108.964L186.228 85.36H183.456L184.128 82H186.9L189.42 70.408L201.852 68.728L198.996 82H204.036L203.363 85.36H198.324L192.948 110.56C192.724 111.4 192.612 112.296 192.612 113.248C192.612 114.368 192.864 115.18 193.368 115.684C193.928 116.132 194.824 116.356 196.056 116.356C197.68 116.356 199.192 115.684 200.592 114.34C201.992 112.94 203 111.148 203.616 108.964H207.144C205.072 115.012 202.412 119.128 199.164 121.312C195.916 123.44 192.696 124.504 189.504 124.504ZM215.594 124.504C211.45 124.504 208.23 123.44 205.934 121.312C203.638 119.128 202.49 115.74 202.49 111.148C202.49 107.284 203.246 103.028 204.758 98.38C206.27 93.732 208.734 89.728 212.15 86.368C215.566 82.952 219.906 81.244 225.17 81.244C231.33 81.244 234.41 83.932 234.41 89.308C234.41 92.444 233.514 95.328 231.722 97.96C229.93 100.592 227.55 102.72 224.582 104.344C221.614 105.912 218.45 106.808 215.09 107.032C214.978 108.712 214.922 109.832 214.922 110.392C214.922 113.136 215.398 115.012 216.35 116.02C217.302 116.972 218.842 117.448 220.97 117.448C223.994 117.448 226.57 116.748 228.698 115.348C230.882 113.948 233.262 111.82 235.838 108.964H238.694C232.478 119.324 224.778 124.504 215.594 124.504ZM215.762 103C217.834 102.888 219.794 102.16 221.642 100.816C223.546 99.472 225.058 97.764 226.178 95.692C227.354 93.62 227.942 91.436 227.942 89.14C227.942 86.844 227.242 85.696 225.842 85.696C223.826 85.696 221.838 87.46 219.878 90.988C217.974 94.516 216.602 98.52 215.762 103ZM245.396 124.504C242.708 124.504 240.44 124 238.592 122.992C236.744 121.928 235.372 120.584 234.476 118.96C233.58 117.28 233.132 115.544 233.132 113.752C233.132 111.904 233.58 110.308 234.476 108.964C235.316 107.564 236.352 106.556 237.584 105.94C239.768 102.02 241.672 98.072 243.296 94.096C244.92 90.064 246.46 85.724 247.916 81.076L260.348 79.396C260.628 86.564 261.104 94.32 261.776 102.664C262.056 106.024 262.196 108.46 262.196 109.972C262.196 113.388 261.328 116.188 259.592 118.372C257.856 120.556 255.7 122.124 253.124 123.076C250.604 124.028 248.028 124.504 245.396 124.504ZM242.708 117.868C244.78 117.868 246.516 117.252 247.916 116.02C249.316 114.788 250.016 112.8 250.016 110.056C250.016 108.376 249.848 106.024 249.512 103C248.952 96.616 248.588 92.332 248.42 90.148C247.076 94.572 244.808 99.864 241.616 106.024C242.904 106.696 243.548 107.676 243.548 108.964C243.548 110.028 243.184 110.98 242.456 111.82C241.784 112.66 240.916 113.08 239.852 113.08C238.676 113.08 237.92 112.716 237.584 111.988C237.584 114.004 237.976 115.488 238.76 116.44C239.6 117.392 240.916 117.868 242.708 117.868Z" fill="#D0BCFF"/>
<path d="M137.191 141.315C135.513 141.315 134.15 140.79 133.101 139.741C132.087 138.693 131.58 137.119 131.58 135.022C131.58 134.148 131.72 133.012 132 131.613L135.146 116.878H133.416L133.835 114.78H135.566L137.139 107.544L144.9 106.495L143.117 114.78H146.263L145.844 116.878H142.698L139.342 132.61C139.202 133.134 139.132 133.693 139.132 134.288C139.132 134.987 139.289 135.494 139.604 135.809C139.953 136.088 140.513 136.228 141.282 136.228C142.296 136.228 143.239 135.809 144.113 134.969C144.987 134.095 145.617 132.977 146.001 131.613H148.204C146.91 135.389 145.25 137.959 143.222 139.322C141.194 140.65 139.184 141.315 137.191 141.315ZM153.637 141.21C151.05 141.21 149.004 140.546 147.501 139.217C145.998 137.889 145.246 135.791 145.246 132.924C145.246 130.512 145.718 127.873 146.662 125.006C147.606 122.104 149.144 119.605 151.277 117.507C153.409 115.375 156.136 114.308 159.457 114.308C163.583 114.308 165.802 116.668 166.117 121.388C166.886 121.213 167.568 120.793 168.162 120.129C168.757 119.43 169.316 118.643 169.84 117.769H171.518C170.574 119.657 169.735 121.143 169.001 122.227C168.267 123.276 167.306 124.132 166.117 124.796C165.907 128.082 165.226 130.967 164.072 133.449C162.953 135.931 161.485 137.854 159.667 139.217C157.849 140.546 155.839 141.21 153.637 141.21ZM155.734 136.49C157.028 136.49 158.234 135.441 159.352 133.344C160.471 131.246 161.24 128.659 161.66 125.583C160.821 125.268 160.401 124.482 160.401 123.223C160.401 121.86 160.891 120.951 161.87 120.496C161.8 119.378 161.607 118.608 161.293 118.189C161.013 117.734 160.541 117.507 159.877 117.507C158.723 117.507 157.622 118.346 156.573 120.024C155.524 121.667 154.668 123.678 154.004 126.055C153.374 128.397 153.06 130.46 153.06 132.243C153.06 133.921 153.252 135.057 153.637 135.651C154.021 136.211 154.72 136.49 155.734 136.49ZM191.66 111.949C190.507 111.949 189.528 111.547 188.724 110.743C187.92 109.938 187.518 108.96 187.518 107.806C187.518 106.652 187.92 105.673 188.724 104.869C189.528 104.03 190.507 103.611 191.66 103.611C192.814 103.611 193.793 104.03 194.597 104.869C195.436 105.673 195.856 106.652 195.856 107.806C195.856 108.96 195.436 109.938 194.597 110.743C193.793 111.547 192.814 111.949 191.66 111.949ZM188.094 141.315C186.416 141.315 185.053 140.79 184.004 139.741C182.99 138.693 182.483 137.119 182.483 135.022C182.483 134.148 182.623 133.012 182.903 131.613L186.469 114.78H194.02L190.245 132.61C190.105 133.134 190.035 133.693 190.035 134.288C190.035 134.987 190.192 135.494 190.507 135.809C190.856 136.088 191.416 136.228 192.185 136.228C193.199 136.228 194.142 135.809 195.016 134.969C195.89 134.095 196.52 132.977 196.904 131.613H199.107C197.813 135.389 196.153 137.959 194.125 139.322C192.097 140.65 190.087 141.315 188.094 141.315ZM215.814 141.315C213.681 141.315 212.108 140.755 211.094 139.637C210.116 138.483 209.626 137.067 209.626 135.389C209.626 134.655 209.714 133.833 209.888 132.924C210.063 131.98 210.238 131.071 210.413 130.198C210.622 129.324 210.762 128.764 210.832 128.519C211.112 127.296 211.374 126.09 211.619 124.901C211.864 123.713 211.986 122.751 211.986 122.017C211.986 120.234 211.357 119.343 210.098 119.343C209.189 119.343 208.385 119.797 207.686 120.706C206.987 121.58 206.427 122.734 206.008 124.167L202.442 141H194.891L200.449 114.78H208.001L207.424 117.507C209.172 115.549 211.217 114.571 213.559 114.571C215.342 114.571 216.758 115.06 217.807 116.039C218.855 117.018 219.38 118.504 219.38 120.496C219.38 121.51 219.258 122.646 219.013 123.905C218.768 125.128 218.418 126.632 217.964 128.415C217.684 129.498 217.422 130.565 217.177 131.613C216.968 132.627 216.863 133.431 216.863 134.026C216.863 134.725 217.02 135.267 217.335 135.651C217.649 136.036 218.191 136.228 218.96 136.228C220.009 136.228 220.848 135.861 221.477 135.127C222.107 134.358 222.736 133.187 223.365 131.613H225.568C224.274 135.459 222.771 138.046 221.058 139.374C219.38 140.668 217.632 141.315 215.814 141.315ZM229.337 141.315C227.659 141.315 226.243 141 225.09 140.371C223.936 139.706 223.079 138.867 222.52 137.854C221.961 136.805 221.681 135.721 221.681 134.602C221.681 133.449 221.961 132.452 222.52 131.613C223.044 130.739 223.691 130.11 224.46 129.726C225.824 127.278 227.012 124.814 228.026 122.332C229.04 119.815 230.001 117.105 230.91 114.204L238.671 113.155C238.846 117.63 239.143 122.471 239.563 127.68C239.738 129.778 239.825 131.299 239.825 132.243C239.825 133.047 239.755 133.711 239.615 134.235C241.258 133.291 242.517 132.417 243.391 131.613H245.593C243.356 134.2 240.682 136.385 237.57 138.168C236.556 139.252 235.298 140.056 233.795 140.58C232.326 141.07 230.84 141.315 229.337 141.315ZM227.659 137.172C228.953 137.172 230.036 136.787 230.91 136.018C231.784 135.249 232.221 134.008 232.221 132.295C232.221 131.246 232.116 129.778 231.907 127.89C231.557 123.905 231.33 121.23 231.225 119.867C230.386 122.629 228.97 125.932 226.977 129.778C227.781 130.198 228.184 130.809 228.184 131.613C228.184 132.278 227.956 132.872 227.502 133.396C227.082 133.921 226.54 134.183 225.876 134.183C225.142 134.183 224.67 133.956 224.46 133.501C224.46 134.76 224.705 135.686 225.194 136.28C225.719 136.875 226.54 137.172 227.659 137.172ZM247.368 112.84H254.919L254.08 116.773C255.828 115.27 257.873 114.518 260.215 114.518C262.173 114.518 263.729 115.165 264.882 116.458C266.036 117.752 266.613 119.867 266.613 122.804C266.613 125.565 266.211 128.362 265.407 131.194C264.603 133.991 263.239 136.385 261.317 138.378C259.394 140.336 256.859 141.315 253.713 141.315C251.475 141.315 249.99 140.685 249.256 139.427L246.529 152.222L238.61 154.11L247.368 112.84ZM252.087 136.752C253.765 136.752 255.146 135.966 256.23 134.393C257.349 132.819 258.153 130.949 258.642 128.782C259.167 126.579 259.429 124.534 259.429 122.646C259.429 119.745 258.555 118.294 256.807 118.294C256.178 118.294 255.531 118.521 254.867 118.975C254.237 119.43 253.678 120.059 253.188 120.863L250.095 135.546C250.374 136.35 251.038 136.752 252.087 136.752ZM276.669 111.949C275.516 111.949 274.537 111.547 273.733 110.743C272.929 109.938 272.527 108.96 272.527 107.806C272.527 106.652 272.929 105.673 273.733 104.869C274.537 104.03 275.516 103.611 276.669 103.611C277.823 103.611 278.802 104.03 279.606 104.869C280.445 105.673 280.865 106.652 280.865 107.806C280.865 108.96 280.445 109.938 279.606 110.743C278.802 111.547 277.823 111.949 276.669 111.949ZM273.104 141.315C271.425 141.315 270.062 140.79 269.013 139.741C267.999 138.693 267.493 137.119 267.493 135.022C267.493 134.148 267.632 133.012 267.912 131.613L271.478 114.78H279.029L275.254 132.61C275.114 133.134 275.044 133.693 275.044 134.288C275.044 134.987 275.201 135.494 275.516 135.809C275.865 136.088 276.425 136.228 277.194 136.228C278.208 136.228 279.152 135.809 280.026 134.969C280.9 134.095 281.529 132.977 281.913 131.613H284.116C282.822 135.389 281.162 137.959 279.134 139.322C277.106 140.65 275.096 141.315 273.104 141.315ZM285.458 114.78H293.01L292.328 118.032C293.516 116.983 294.583 116.179 295.527 115.619C296.506 115.06 297.554 114.78 298.673 114.78C299.792 114.78 300.666 115.165 301.295 115.934C301.959 116.703 302.291 117.63 302.291 118.713C302.291 119.727 301.959 120.619 301.295 121.388C300.631 122.157 299.704 122.541 298.516 122.541C297.747 122.541 297.222 122.367 296.943 122.017C296.698 121.632 296.506 121.091 296.366 120.391C296.261 119.937 296.156 119.605 296.051 119.395C295.946 119.185 295.754 119.08 295.474 119.08C294.74 119.08 294.111 119.238 293.586 119.552C293.097 119.832 292.45 120.339 291.646 121.073L287.451 141H279.9L285.458 114.78ZM309.002 141.315C306.45 141.315 304.458 140.65 303.024 139.322C301.591 137.959 300.874 135.843 300.874 132.977C300.874 130.565 301.346 127.908 302.29 125.006C303.234 122.104 304.772 119.605 306.905 117.507C309.037 115.375 311.747 114.308 315.033 114.308C318.878 114.308 320.801 115.986 320.801 119.343C320.801 121.3 320.242 123.101 319.123 124.744C318.004 126.387 316.519 127.715 314.666 128.729C312.813 129.708 310.838 130.267 308.74 130.407C308.67 131.176 308.635 131.701 308.635 131.98C308.635 134.882 309.719 136.333 311.886 136.333C312.865 136.333 313.914 136.071 315.033 135.546C316.152 135.022 317.165 134.358 318.074 133.554C317.13 138.728 314.106 141.315 309.002 141.315ZM309.107 127.89C310.436 127.855 311.677 127.418 312.83 126.579C314.019 125.74 314.963 124.674 315.662 123.38C316.396 122.052 316.763 120.671 316.763 119.238C316.763 117.804 316.326 117.088 315.452 117.088C314.229 117.088 313.005 118.206 311.782 120.444C310.593 122.646 309.702 125.128 309.107 127.89Z" fill="#381E72"/>
<path d="M46 17L49.5112 33.423L59 39.5L49.5112 45.577L46 62L42.4888 45.577L33 39.5L42.4888 33.423L46 17Z" fill="#9A82DB"/>
<path d="M327 88L330.511 104.423L340 110.5L330.511 116.577L327 133L323.489 116.577L314 110.5L323.489 104.423L327 88Z" fill="#9A82DB"/>
<path d="M13 118L16.5112 134.423L26 140.5L16.5112 146.577L13 163L9.48882 146.577L0 140.5L9.48882 134.423L13 118Z" fill="#9A82DB"/>
</svg>
